<svg width="546" height="268" viewBox="0 0 546 268" fill="none" xmlns="http://www.w3.org/2000/svg">
<g style="mix-blend-mode:hard-light">
<path d="M161.149 88.9955L169.947 88.4689L162.183 84.2977L36.9067 16.9907L274.037 108.931C248.386 111.222 229.306 113.63 215.688 116.134C207.962 117.554 201.931 119.016 197.427 120.528C193.02 122.007 189.731 123.642 187.846 125.604C186.858 126.632 186.125 127.887 185.986 129.361C185.846 130.846 186.345 132.182 187.11 133.293C188.548 135.384 191.249 137.157 194.427 138.73C200.931 141.949 211.136 145.122 223.188 148.233C240.649 152.74 262.454 157.226 283.478 161.552C291.547 163.212 299.501 164.848 307.05 166.453C320.699 169.355 333.017 172.151 342.39 174.805C347.081 176.133 350.972 177.409 353.899 178.623C355.362 179.23 356.538 179.803 357.433 180.335C358.355 180.884 358.844 181.312 359.063 181.58C361.061 184.029 364.785 186.029 369.295 187.763C373.925 189.543 379.827 191.202 386.638 192.749C400.27 195.846 417.807 198.555 436.658 200.869C455.993 203.243 476.773 205.209 496.247 206.752C480.654 207.781 463.983 209.322 447.678 211.522C429.551 213.969 411.824 217.238 396.509 221.547C381.25 225.839 368.148 231.227 359.459 238.032C351.804 244.027 340.627 246.571 327.136 246.438C313.69 246.305 298.284 243.517 282.521 239.213C251.001 230.608 218.476 216.065 198.172 205.292L191.485 201.743L194.743 208.576L210.243 241.076L210.769 242.177L211.959 242.441L212.5 240C211.959 242.441 211.96 242.441 211.962 242.441L211.97 242.443L212.001 242.45L212.124 242.477L212.607 242.584C213.033 242.679 213.661 242.818 214.474 242.999C216.099 243.36 218.459 243.885 221.398 244.542C227.276 245.854 235.471 247.689 244.738 249.782C248.711 250.68 252.879 251.624 257.146 252.595C168.244 235.323 139.769 222.326 120.409 206.264C114.867 201.666 109.976 196.704 104.584 191.234C90.9853 177.44 74.202 160.415 35.7659 137.844C22.3631 129.974 14.7752 124.788 11.4887 121.695C11.4444 121.654 11.4012 121.613 11.3592 121.572C14.9805 121.838 21.3732 123.331 29.7057 125.757C38.3921 128.285 48.9179 131.742 60.0569 135.6C82.3302 143.313 106.956 152.592 124.026 159.148C132.558 162.425 139.196 165.019 142.702 166.394C143.294 166.626 143.809 166.828 144.233 166.995C145.019 167.304 145.492 167.49 145.554 167.511C145.848 167.578 146.789 166.995 147.363 166.022C149.592 166.654 152.094 167.368 154.849 168.154C162.032 170.204 170.935 172.745 181.206 175.596C219.729 186.29 276.962 201.196 331.604 209.968C345.244 212.158 354.82 213.384 360.963 213.806C364.004 214.014 366.351 214.037 367.969 213.836C368.734 213.741 369.62 213.566 370.361 213.15C370.753 212.93 371.261 212.556 371.62 211.937C372.014 211.257 372.1 210.502 371.952 209.813C371.71 208.679 370.885 207.923 370.437 207.55C369.877 207.083 369.173 206.635 368.406 206.206C366.858 205.341 364.724 204.374 362.145 203.328C356.966 201.23 349.705 198.704 341.077 195.932C306.559 184.844 249.358 169.574 213.039 161.559C195.056 157.59 182.972 153.272 173.854 148.823C164.744 144.379 158.513 139.768 152.18 135.057L151.987 134.914C145.703 130.239 139.281 125.461 130 120.904C120.63 116.303 108.429 111.964 90.5332 108.058C83.4804 106.518 78.7342 105.069 75.838 103.75C74.3772 103.084 73.5537 102.525 73.1431 102.127C73.1416 102.126 73.1401 102.124 73.1386 102.123C73.1901 102.075 73.2528 102.021 73.3287 101.96C73.8443 101.546 74.7072 101.05 75.9944 100.508C78.5531 99.4294 82.2942 98.3693 86.9786 97.356C105.707 93.3045 137.488 90.4119 161.149 88.9955ZM367.37 211.517C367.368 211.517 367.355 211.504 367.335 211.478C367.362 211.505 367.372 211.518 367.37 211.517ZM9.96266 119.92C9.9638 119.92 9.97022 119.933 9.97853 119.958C9.96568 119.932 9.96152 119.919 9.96266 119.92ZM9.2149 121.634C9.20709 121.637 9.20281 121.639 9.20264 121.639C9.20246 121.639 9.20639 121.637 9.2149 121.634ZM72.9183 101.866C72.9187 101.866 72.9216 101.87 72.9258 101.88C72.92 101.87 72.9179 101.866 72.9183 101.866Z" stroke="#FD54AB" stroke-width="5"/>
</g>
</svg>
